# xmcd
# 
# Track frame offsets:
#     187
#     46327
#     77249
#     145977
#     176159
# 
# Disc length: 2515
# 
# Revision: 5
# Processed by: cddbd v1.5.2PL0 Copyright (c) Steve Scherf et al.
# Submitted via: fre:ac v1.0.17
# 
DISCID=4109d105
DTITLE=Cream - Live Cream
DYEAR=1970
DGENRE=Rock
TTITLE0=N.S.U.
TTITLE1=Sleepy Time Time
TTITLE2=Sweet Wine
TTITLE3=Rollin' And Tumblin'
TTITLE4=Lawdy Mama
EXTD=YEAR: 1970
EXTT0=
EXTT1=
EXTT2=
EXTT3=
EXTT4=
PLAYORDER=
